HIERARCHY
ROOT Hips
{
	OFFSET 0.000000 100.481300 0.000000
	CHANNELS 6 Xposition Yposition Zposition Xrotation Yrotation Zrotation
	JOINT Spine
	{
		OFFSET -0.279200 12.230698 -2.892100
		CHANNELS 3 Xrotation Yrotation Zrotation
		JOINT Spine1
		{
			OFFSET -0.325700 14.269203 -3.374200
			CHANNELS 3 Xrotation Yrotation Zrotation
			JOINT Spine2
			{
				OFFSET -0.372300 16.307602 -0.352600
				CHANNELS 3 Xrotation Yrotation Zrotation
				JOINT Neck
				{
					OFFSET -0.418800 17.814194 8.416900
					CHANNELS 3 Xrotation Yrotation Zrotation
					JOINT Head
					{
						OFFSET 0.000000 7.031097 3.806800
						CHANNELS 3 Xrotation Yrotation Zrotation
						JOINT HeadTop_End
						{
							OFFSET 0.000000 24.646606 12.978600
							CHANNELS 3 Xrotation Yrotation Zrotation
							End Site
							{
								OFFSET 0.000000 27.854965 0.000000
							}
						}
					}
				}
				JOINT LeftShoulder
				{
					OFFSET 16.952999 14.495407 -7.737500
					CHANNELS 3 Xrotation Yrotation Zrotation
					JOINT LeftArm
					{
						OFFSET 9.308998 -2.777710 0.208600
						CHANNELS 3 Xrotation Yrotation Zrotation
						JOINT LeftForeArm
						{
							OFFSET 29.972298 0.000000 0.000000
							CHANNELS 3 Xrotation Yrotation Zrotation
							JOINT LeftHand
							{
								OFFSET 26.026505 0.000000 0.000000
								CHANNELS 3 Xrotation Yrotation Zrotation
								JOINT LeftHandThumb1
								{
									OFFSET 12.240501 -7.147949 9.207150
									CHANNELS 3 Xrotation Yrotation Zrotation
									JOINT LeftHandThumb2
									{
										OFFSET 4.138618 -2.389435 2.389433
										CHANNELS 3 Xrotation Yrotation Zrotation
										JOINT LeftHandThumb3
										{
											OFFSET 2.726913 -1.574387 1.574386
											CHANNELS 3 Xrotation Yrotation Zrotation
											JOINT LeftHandThumb4
											{
												OFFSET 3.941010 -2.275345 2.275342
												CHANNELS 3 Xrotation Yrotation Zrotation
												End Site
												{
													OFFSET -0.005798 5.087799 0.009903
												}
											}
										}
									}
								}
								JOINT LeftHandIndex1
								{
									OFFSET 24.424698 -1.985611 5.953459
									CHANNELS 3 Xrotation Yrotation Zrotation
									JOINT LeftHandIndex2
									{
										OFFSET 6.426697 0.000000 0.000000
										CHANNELS 3 Xrotation Yrotation Zrotation
										JOINT LeftHandIndex3
										{
											OFFSET 5.337898 0.000000 0.000000
											CHANNELS 3 Xrotation Yrotation Zrotation
											JOINT LeftHandIndex4
											{
												OFFSET 4.409401 0.000000 0.000000
												CHANNELS 3 Xrotation Yrotation Zrotation
												End Site
												{
													OFFSET 0.000000 4.409363 0.014373
												}
											}
										}
									}
								}
								JOINT LeftHandMiddle1
								{
									OFFSET 23.810104 0.000000 0.000000
									CHANNELS 3 Xrotation Yrotation Zrotation
									JOINT LeftHandMiddle2
									{
										OFFSET 7.176498 0.000000 0.000000
										CHANNELS 3 Xrotation Yrotation Zrotation
										JOINT LeftHandMiddle3
										{
											OFFSET 6.774902 0.000000 0.000000
											CHANNELS 3 Xrotation Yrotation Zrotation
											JOINT LeftHandMiddle4
											{
												OFFSET 5.403328 0.000000 0.000000
												CHANNELS 3 Xrotation Yrotation Zrotation
												End Site
												{
													OFFSET -0.027702 5.403244 0.017414
												}
											}
										}
									}
								}
								JOINT LeftHandRing1
								{
									OFFSET 22.908401 -0.839279 -6.020567
									CHANNELS 3 Xrotation Yrotation Zrotation
									JOINT LeftHandRing2
									{
										OFFSET 6.337502 0.000000 0.000000
										CHANNELS 3 Xrotation Yrotation Zrotation
										JOINT LeftHandRing3
										{
											OFFSET 5.779297 0.000000 0.000000
											CHANNELS 3 Xrotation Yrotation Zrotation
											JOINT LeftHandRing4
											{
												OFFSET 4.965698 0.000000 0.000000
												CHANNELS 3 Xrotation Yrotation Zrotation
												End Site
												{
													OFFSET 0.000000 4.965668 0.016186
												}
											}
										}
									}
								}
								JOINT LeftHandPinky1
								{
									OFFSET 20.037003 -1.530319 -10.950146
									CHANNELS 3 Xrotation Yrotation Zrotation
									JOINT LeftHandPinky2
									{
										OFFSET 5.254700 0.000000 0.000000
										CHANNELS 3 Xrotation Yrotation Zrotation
										JOINT LeftHandPinky3
										{
											OFFSET 4.810204 0.000000 0.000000
											CHANNELS 3 Xrotation Yrotation Zrotation
											JOINT LeftHandPinky4
											{
												OFFSET 3.647202 0.000000 0.000000
												CHANNELS 3 Xrotation Yrotation Zrotation
												End Site
												{
													OFFSET 0.000000 3.647186 0.011889
												}
											}
										}
									}
								}
							}
						}
					}
				}
				JOINT RightShoulder
				{
					OFFSET -15.141001 14.495407 -7.737500
					CHANNELS 3 Xrotation Yrotation Zrotation
					JOINT RightArm
					{
						OFFSET -9.308998 -2.777710 0.208500
						CHANNELS 3 Xrotation Yrotation Zrotation
						JOINT RightForeArm
						{
							OFFSET -29.972300 0.000000 0.000000
							CHANNELS 3 Xrotation Yrotation Zrotation
							JOINT RightHand
							{
								OFFSET -26.026505 0.000000 0.000000
								CHANNELS 3 Xrotation Yrotation Zrotation
								JOINT RightHandThumb1
								{
									OFFSET -12.240601 -7.148026 9.207092
									CHANNELS 3 Xrotation Yrotation Zrotation
									JOINT RightHandThumb2
									{
										OFFSET -4.138618 -2.389435 2.389433
										CHANNELS 3 Xrotation Yrotation Zrotation
										JOINT RightHandThumb3
										{
											OFFSET -2.726974 -1.574417 1.574421
											CHANNELS 3 Xrotation Yrotation Zrotation
											JOINT RightHandThumb4
											{
												OFFSET -3.941010 -2.275345 2.275343
												CHANNELS 3 Xrotation Yrotation Zrotation
												End Site
												{
													OFFSET 0.005814 5.087799 0.009927
												}
											}
										}
									}
								}
								JOINT RightHandIndex1
								{
									OFFSET -24.424698 -1.985657 5.953444
									CHANNELS 3 Xrotation Yrotation Zrotation
									JOINT RightHandIndex2
									{
										OFFSET -6.426697 0.000000 0.000000
										CHANNELS 3 Xrotation Yrotation Zrotation
										JOINT RightHandIndex3
										{
											OFFSET -5.337898 0.000000 0.000000
											CHANNELS 3 Xrotation Yrotation Zrotation
											JOINT RightHandIndex4
											{
												OFFSET -4.409401 0.000000 0.000000
												CHANNELS 3 Xrotation Yrotation Zrotation
												End Site
												{
													OFFSET 0.000000 4.409363 0.014408
												}
											}
										}
									}
								}
								JOINT RightHandMiddle1
								{
									OFFSET -23.810097 0.000000 0.000000
									CHANNELS 3 Xrotation Yrotation Zrotation
									JOINT RightHandMiddle2
									{
										OFFSET -7.176498 0.000000 0.000000
										CHANNELS 3 Xrotation Yrotation Zrotation
										JOINT RightHandMiddle3
										{
											OFFSET -6.774902 0.000000 0.000000
											CHANNELS 3 Xrotation Yrotation Zrotation
											JOINT RightHandMiddle4
											{
												OFFSET -5.403328 0.000000 0.000000
												CHANNELS 3 Xrotation Yrotation Zrotation
												End Site
												{
													OFFSET 0.027702 5.403244 0.017457
												}
											}
										}
									}
								}
								JOINT RightHandRing1
								{
									OFFSET -22.908302 -0.839325 -6.020576
									CHANNELS 3 Xrotation Yrotation Zrotation
									JOINT RightHandRing2
									{
										OFFSET -6.337502 0.000000 0.000000
										CHANNELS 3 Xrotation Yrotation Zrotation
										JOINT RightHandRing3
										{
											OFFSET -5.779297 0.000000 0.000000
											CHANNELS 3 Xrotation Yrotation Zrotation
											JOINT RightHandRing4
											{
												OFFSET -4.965698 0.000000 0.000000
												CHANNELS 3 Xrotation Yrotation Zrotation
												End Site
												{
													OFFSET 0.000000 4.965668 0.016226
												}
											}
										}
									}
								}
								JOINT RightHandPinky1
								{
									OFFSET -20.037003 -1.530334 -10.950259
									CHANNELS 3 Xrotation Yrotation Zrotation
									JOINT RightHandPinky2
									{
										OFFSET -5.254700 0.000000 0.000000
										CHANNELS 3 Xrotation Yrotation Zrotation
										JOINT RightHandPinky3
										{
											OFFSET -4.810204 0.000000 0.000000
											CHANNELS 3 Xrotation Yrotation Zrotation
											JOINT RightHandPinky4
											{
												OFFSET -3.647202 0.000000 0.000000
												CHANNELS 3 Xrotation Yrotation Zrotation
												End Site
												{
													OFFSET 0.000000 3.647186 0.011917
												}
											}
										}
									}
								}
							}
						}
					}
				}
			}
		}
	}
	JOINT LeftUpLeg
	{
		OFFSET 15.427100 -6.655098 0.678600
		CHANNELS 3 Xrotation Yrotation Zrotation
		JOINT LeftLeg
		{
			OFFSET 4.081073 -39.591068 13.024000
			CHANNELS 3 Xrotation Yrotation Zrotation
			JOINT LeftFoot
			{
				OFFSET -4.081074 -37.707932 -15.979700
				CHANNELS 3 Xrotation Yrotation Zrotation
				JOINT LeftToeBase
				{
					OFFSET 5.346399 -15.068900 20.645000
					CHANNELS 3 Xrotation Yrotation Zrotation
					JOINT LeftToe_End
					{
						OFFSET 2.754700 0.931300 11.300900
						CHANNELS 3 Xrotation Yrotation Zrotation
						End Site
						{
							OFFSET 0.000000 11.669021 0.000000
						}
					}
				}
			}
		}
	}
	JOINT RightUpLeg
	{
		OFFSET -15.569500 -6.655098 0.678600
		CHANNELS 3 Xrotation Yrotation Zrotation
		JOINT RightLeg
		{
			OFFSET -4.081825 -39.591045 13.023800
			CHANNELS 3 Xrotation Yrotation Zrotation
			JOINT RightFoot
			{
				OFFSET 4.081824 -37.707954 -15.979600
				CHANNELS 3 Xrotation Yrotation Zrotation
				JOINT RightToeBase
				{
					OFFSET -5.346400 -15.068900 20.645000
					CHANNELS 3 Xrotation Yrotation Zrotation
					JOINT RightToe_End
					{
						OFFSET -2.754700 0.931300 11.300900
						CHANNELS 3 Xrotation Yrotation Zrotation
						End Site
						{
							OFFSET 0.000000 11.669021 0.000000
						}
					}
				}
			}
		}
	}
}
MOTION
Frames: 6
Frame Time: 0.033333
-1.712627 47.220459 10.197001 -8.992872 4.659858 -6.018329 14.481051 1.182416 2.755777 6.406891 0.381835 1.537961 6.406285 0.431493 1.525798 8.774977 -2.102344 1.149069 16.403000 -10.044787 3.846721 -0.000004 0.000000 0.000000 1.903937 -7.614779 -4.524533 -28.156111 -11.775337 -55.601698 0.000093 -81.007574 0.000090 46.073485 19.790395 4.923327 -2.524481 2.062199 5.090717 4.825012 12.055891 -0.002246 -1.292899 -0.889668 2.991869 -0.000002 0.000002 0.000000 -0.610374 -7.228572 -5.131615 0.079069 1.042620 -8.673466 -0.000002 -0.000001 -0.000025 0.000001 -0.000000 0.000001 0.899765 -5.311893 10.731259 0.072099 0.995837 -8.281598 -0.000001 -0.000026 0.000250 0.000000 -0.000000 0.000000 -1.824000 7.848724 12.630137 1.314948 4.052083 -35.944847 0.000799 0.105094 -0.871035 0.000002 0.000000 -0.000001 1.639887 35.275697 -0.654165 0.029089 -3.307919 -6.707804 0.240543 1.807556 -15.159180 -0.000000 0.000003 -0.000000 3.944827 8.515212 2.357374 -12.633233 28.083796 29.016840 0.000069 82.862373 -0.000027 44.039755 -7.463174 -21.875972 -13.527717 2.461882 -9.649190 10.093947 -22.464950 0.890623 -0.363668 -2.364128 -2.126581 -0.000000 0.000000 0.000001 -3.285481 4.430739 28.608724 3.928917 -6.260831 64.188615 0.123131 -1.305331 10.776388 -0.000000 -0.000001 0.000000 -1.190096 1.753218 21.520997 2.512010 -5.353047 50.253195 0.038189 -0.729229 5.994985 -0.000002 0.000001 0.000002 -0.104072 0.390206 7.245098 0.901451 -3.429001 29.450543 0.002417 -0.183783 1.508198 0.000001 -0.000000 0.000000 4.373600 -25.511332 8.753374 0.203353 -1.672562 13.863115 -0.000001 -0.000318 0.002536 -0.000000 0.000000 0.000000 -82.422160 -3.645676 1.217976 97.975526 -3.924994 0.339872 -7.981560 -5.562740 0.362950 1.011517 0.000002 0.000003 -0.000000 0.000000 -0.000000 -67.427443 -7.607831 -15.840809 100.109939 5.849230 4.349839 -29.685314 5.149917 3.054095 -3.711246 0.000006 -0.000008 -0.000001 0.000000 -0.000000 
-1.715179 47.239746 10.208187 -8.998096 4.650106 -6.101546 14.440768 1.152084 2.714530 6.391055 0.370151 1.524157 6.390404 0.420306 1.512317 8.753646 -2.071924 1.159077 16.552415 -9.877102 3.907527 0.000002 0.000000 0.000000 1.900331 -7.656768 -4.774350 -28.153768 -11.754546 -55.398776 0.000055 -81.105833 0.000058 46.200554 19.839731 4.785204 -2.473337 2.149228 5.091146 4.855262 12.185337 -0.026819 -1.275173 -0.826145 2.980353 -0.000001 0.000002 0.000002 -0.615230 -7.211251 -5.176868 0.079533 1.045652 -8.699010 0.000000 0.000000 -0.000031 0.000001 -0.000000 0.000000 0.901880 -5.317426 10.745479 0.072162 0.996284 -8.285200 -0.000001 -0.000026 0.000250 0.000000 -0.000001 -0.000000 -1.829317 7.839294 12.673368 1.316239 4.053861 -35.963340 0.000874 0.109958 -0.911093 -0.000002 -0.000002 0.000002 1.552172 35.230092 -0.506830 0.028397 -3.313793 -6.658871 0.244122 1.820693 -15.272166 -0.000001 0.000000 0.000001 3.936610 8.454005 2.032961 -11.965917 29.462820 28.380122 0.000105 83.014638 -0.000072 43.711582 -11.471087 -20.726146 -12.498637 -0.311718 -7.732752 11.117656 -24.790192 1.143804 0.264950 -4.072569 -2.142101 0.000000 -0.000000 -0.000001 -2.326139 4.434283 22.404373 4.190617 -6.380048 66.565432 0.166119 -1.513806 12.524093 -0.000000 -0.000000 -0.000000 -0.585281 3.124284 9.311553 3.055733 -5.759973 55.864093 0.077108 -1.034781 8.523314 0.000000 0.000000 -0.000002 0.008781 0.584754 -0.927419 0.867076 -3.367501 28.870646 0.003170 -0.210243 1.725418 -0.000001 0.000000 -0.000001 5.268294 -24.498089 11.426459 0.226942 -1.765361 14.649661 -0.000001 -0.000128 0.000990 0.000001 -0.000000 -0.000000 -82.409634 -3.703233 1.296100 97.995292 -3.915341 0.357682 -7.999827 -5.623593 0.360330 1.008843 0.000001 -0.000002 -0.000000 0.000000 -0.000000 -67.338084 -7.670562 -15.713456 100.049485 5.851886 4.358534 -29.691252 5.089506 3.039971 -3.656388 -0.000001 -0.000002 0.000001 0.000000 0.000001 
-1.739213 47.244797 10.230757 -9.015351 4.649336 -6.177706 14.418586 1.143351 2.653756 6.381474 0.369658 1.498532 6.380810 0.419489 1.486710 8.680292 -2.031479 1.127625 16.602916 -9.724073 4.034912 0.000001 0.000001 -0.000000 1.885293 -7.647211 -5.119444 -28.168014 -11.895754 -55.097207 -0.000192 -81.213490 -0.000191 46.280023 19.867746 4.632310 -2.462717 2.170333 5.060826 4.867691 12.238365 -0.036900 -1.272095 -0.815066 2.978352 0.000000 0.000004 0.000001 -0.625825 -7.174066 -5.275935 0.080406 1.051303 -8.746554 0.000002 -0.000003 0.000010 -0.000000 -0.000000 0.000001 0.901876 -5.337055 10.691801 0.072410 0.998002 -8.299742 -0.000001 -0.000027 0.000250 0.000000 0.000000 0.000000 -1.818818 7.824947 12.627678 1.310180 4.045523 -35.877638 0.000708 0.098995 -0.820371 -0.000000 0.000000 0.000002 1.505096 35.121557 -0.438718 0.027550 -3.321099 -6.597894 0.244781 1.823131 -15.293176 -0.000001 -0.000001 -0.000001 3.930932 8.406317 1.751340 -10.860686 31.293161 27.957344 0.000042 83.051883 -0.000036 44.748753 -16.230911 -20.227236 -11.572681 -2.585937 -5.587925 12.932798 -28.717527 1.629201 1.327505 -6.922911 -2.156557 0.000001 -0.000000 0.000002 -0.991461 6.002743 9.087854 4.101763 -6.341035 65.763466 0.292813 -2.000332 16.654127 0.000003 0.000000 0.000001 -0.098393 3.559352 1.771507 3.276435 -5.902836 58.036042 0.099884 -1.176716 9.703347 -0.000004 -0.000002 -0.000003 0.052390 0.977579 -4.098354 0.808914 -3.259977 27.864399 0.003173 -0.210359 1.726440 -0.000002 0.000000 -0.000000 6.132442 -23.230776 14.415584 0.275656 -1.942071 16.155276 -0.000003 0.000614 -0.005051 -0.000000 0.000000 -0.000000 -82.398535 -3.783249 1.393897 98.035269 -3.913007 0.371984 -8.027442 -5.704910 0.339544 1.011110 -0.000003 0.000001 0.000000 0.000000 0.000000 -67.249284 -7.734033 -15.582136 100.022335 5.853604 4.367169 -29.705401 5.044907 3.055132 -3.642048 -0.000003 0.000003 0.000001 0.000001 -0.000000 
-1.775068 47.236725 10.256859 -9.040913 4.668409 -6.233531 14.430651 1.162826 2.582724 6.384297 0.382821 1.465077 6.383656 0.431657 1.452871 8.550034 -1.973791 1.054258 16.551497 -9.531208 4.150205 -0.000003 -0.000000 -0.000000 1.861542 -7.568759 -5.445430 -28.215737 -12.173207 -54.853721 0.000352 -81.294844 0.000364 46.345538 19.864202 4.547330 -2.487026 2.132849 5.023183 4.866097 12.231557 -0.035605 -1.289706 -0.878189 2.989798 -0.000000 0.000003 0.000000 -0.642529 -7.119518 -5.431229 0.081359 1.057470 -8.798063 -0.000004 -0.000017 0.000067 -0.000001 -0.000000 0.000001 0.895661 -5.357496 10.551348 0.072642 0.999547 -8.312619 -0.000001 -0.000026 0.000250 -0.000000 0.000001 0.000000 -1.785956 7.802962 12.456170 1.293688 4.022672 -35.643100 0.000385 0.073112 -0.605797 0.000001 0.000002 -0.000001 1.512935 34.980667 -0.471211 0.026772 -3.327792 -6.542235 0.241027 1.809329 -15.174445 -0.000001 0.000004 0.000002 3.930982 8.394051 1.632848 -9.897534 32.973186 28.087111 0.000091 82.980446 -0.000066 46.436100 -19.839312 -20.425566 -11.232209 -3.614980 -3.616213 14.934270 -32.768509 2.220430 2.780724 -10.742179 -2.152521 -0.000000 0.000001 0.000001 0.613243 8.309484 -3.898520 3.637150 -6.111982 61.481593 0.422487 -2.391100 20.037726 -0.000003 -0.000000 0.000001 -0.128427 3.173696 2.433111 3.061347 -5.763768 55.919930 0.083360 -1.075656 8.862672 -0.000003 0.000001 0.000000 0.017575 1.044678 -0.969112 0.715420 -3.076905 26.173075 0.001933 -0.164608 1.350693 0.000001 -0.000000 -0.000000 6.657476 -22.570546 16.290172 0.330877 -2.123337 17.712129 -0.000001 0.001048 -0.008669 0.000000 0.000001 0.000001 -82.393166 -3.873255 1.461670 98.081674 -3.915572 0.382101 -8.051961 -5.773621 0.302426 1.016077 -0.000001 0.000001 -0.000000 0.000000 -0.000000 -67.173435 -7.794450 -15.502479 100.029001 5.859604 4.376442 -29.727886 5.031705 3.095212 -3.670296 -0.000002 0.000008 -0.000000 0.000000 0.000000 
-1.809735 47.220451 10.277143 -9.062129 4.713381 -6.275607 14.473128 1.217067 2.520765 6.398963 0.412141 1.433576 6.398392 0.459551 1.420516 8.383103 -1.897605 0.966577 16.410445 -9.241649 4.166305 -0.000000 0.000000 -0.000000 1.838272 -7.443300 -5.605240 -28.303064 -12.505107 -54.838243 0.000106 -81.316667 0.000088 46.437794 19.820502 4.584415 -2.535330 2.053815 4.994438 4.855910 12.188098 -0.027344 -1.324109 -1.001865 3.012186 0.000000 0.000000 0.000001 -0.665220 -7.056383 -5.638398 0.082103 1.062304 -8.838791 0.000001 0.000003 0.000039 0.000002 -0.000000 0.000001 0.880409 -5.363241 10.328174 0.072660 0.999698 -8.313973 -0.000004 -0.000026 0.000250 -0.000001 -0.000001 -0.000000 -1.731683 7.774272 12.160838 1.268628 3.987581 -35.284365 0.000131 0.042215 -0.349703 0.000000 0.000001 0.000001 1.565754 34.834354 -0.584153 0.026267 -3.332241 -6.505036 0.235081 1.787274 -14.985141 -0.000000 -0.000004 -0.000001 3.937101 8.428286 1.780439 -9.580682 33.973696 28.802085 -0.000070 82.950605 0.000052 48.258241 -20.640277 -21.058213 -11.384419 -3.659322 -2.441854 16.272842 -35.320438 2.649646 4.832736 -15.972008 -2.099724 0.000001 0.000000 0.000002 1.517096 9.958787 -8.659795 3.042903 -5.751302 55.736167 0.421544 -2.388507 20.015162 0.000002 -0.000002 -0.000001 -0.514065 2.227954 10.435353 2.452095 -5.302873 49.608046 0.038563 -0.732793 6.024475 -0.000003 0.000001 0.000001 -0.086114 0.516773 5.766323 0.624338 -2.884465 24.421669 0.000429 -0.077204 0.633543 -0.000001 0.000002 0.000001 6.587700 -23.069536 15.704534 0.363823 -2.223818 18.580915 0.000000 -0.000220 0.001807 0.000000 -0.000001 0.000001 -82.412161 -3.962043 1.467168 98.121938 -3.917965 0.393016 -8.054064 -5.811241 0.260454 1.022244 0.000002 0.000004 0.000000 0.000001 0.000000 -67.118295 -7.855629 -15.501920 100.051951 5.875014 4.391986 -29.750842 5.047991 3.143472 -3.718773 0.000001 0.000005 -0.000000 0.000000 -0.000000 
-1.830212 47.202026 10.284662 -9.070042 4.778117 -6.313189 14.529207 1.294040 2.483300 6.420840 0.451319 1.412686 6.420364 0.497195 1.398502 8.220242 -1.795092 0.902987 16.221988 -8.756547 4.010866 -0.000001 -0.000000 -0.000000 1.821935 -7.310266 -5.553451 -28.400690 -12.827703 -55.049187 0.000438 -81.275392 0.000439 46.530469 19.752550 4.767998 -2.595183 1.954072 4.977266 4.841510 12.126550 -0.015664 -1.360889 -1.134574 3.036206 0.000001 -0.000002 -0.000002 -0.693550 -6.994382 -5.889872 0.082616 1.065598 -8.866275 0.000004 0.000021 -0.000142 -0.000000 -0.000000 0.000001 0.857253 -5.347147 10.054618 0.072603 0.999333 -8.310710 -0.000005 -0.000026 0.000251 -0.000001 -0.000001 -0.000000 -1.667095 7.742158 11.802619 1.242166 3.950006 -34.901833 0.000025 0.019352 -0.160350 -0.000000 0.000001 -0.000001 1.626862 34.692648 -0.711966 0.025978 -3.334773 -6.484159 0.231522 1.773927 -14.870531 -0.000000 -0.000000 0.000002 3.945608 8.492333 2.131359 -10.018790 34.146581 29.829676 -0.000078 83.111033 0.000079 49.879929 -18.501941 -21.378962 -11.681516 -3.162618 -2.666822 16.068083 -34.938057 2.582213 6.811197 -20.825018 -1.995569 0.000003 0.000000 -0.000000 0.507527 10.019518 -2.377869 2.590986 -5.417473 51.094818 0.271671 -1.928281 16.037320 0.000001 -0.000001 -0.000002 -0.923836 1.186842 20.847320 1.783486 -4.654268 41.915146 0.006632 -0.304035 2.495764 0.000001 0.000001 0.000001 -0.106240 -0.191264 11.670326 0.610428 -2.853671 24.143720 0.000013 0.011238 -0.092189 0.000001 -0.000000 -0.000001 5.747200 -24.355898 12.686184 0.359950 -2.212251 18.480649 0.000003 -0.002819 0.023182 0.000001 -0.000001 -0.000001 -82.463422 -4.036460 1.401868 98.148056 -3.916731 0.408912 -8.024250 -5.807316 0.227203 1.028069 -0.000001 -0.000001 -0.000000 0.000000 -0.000000 -67.088201 -7.915458 -15.577561 100.071840 5.899377 4.416791 -29.764592 5.088197 3.186823 -3.761389 0.000001 0.000001 0.000001 0.000000 -0.000000 
